:SAMPLES-PER-SECOND 30
:FULLY-SPECIFIED
:DEGREES
359
root  -34.5383 40.1283 12.7054 -176.625 -67.7866 164.596
RightUpLeg  -17.3021 -7.65092 -9.48502
RightLeg  50.2275 -4.87313 -6.5984
RightFoot  3.87758 -0.373718 3.00308
RightToes  0.000482159 0.542163 -0.142577
Spine  11.0456 -0.865824 -4.20911
Spine1  7.51165 -1.05916 -1.91039
HEad  -4.88109 5.69423 -1.21101
LeftShoulder1  7.58169 -11.3003 -44.6043
LeftArm  -12.7124 18.4505 -24.7026
LeftForeArm  40.5347 -42.9491 -7.72197
LeftHand  -0.25398 0.0180481 5.50724
RightShoulder  4.71056 8.16617 34.4122
RightArm  5.16012 -18.3967 37.4079
RightForeArm  1.09384 21.759 4.94153
RightHand  -2.10778 6.60355 -20.5982
LeftUpLeg  4.92883 8.18815 -7.57354
LeftLeg  15.0277 15.598 -0.0100987
LeftFoot  -9.45549 -0.0531165 6.62263
LeftToes  1.06245e-005 4.65855e-005 -8.18503e-006
360
root  -35.6829 40.0352 12.1093 -175.414 -69.2016 163.527
RightUpLeg  -18.3295 -9.19824 -9.48182
RightLeg  39.7926 -5.82835 -5.44902
RightFoot  3.15284 -0.493423 4.04269
RightToes  0.000482159 0.542163 -0.142577
Spine  10.9663 -0.958505 -5.11744
Spine1  7.5008 -1.43822 -1.38633
HEad  -4.72613 4.48394 -0.261137
LeftShoulder1  7.55191 -11.3563 -44.2463
LeftArm  -13.7231 16.9648 -24.2272
LeftForeArm  42.2627 -48.4505 -9.51769
LeftHand  -0.25398 0.0180481 5.50724
RightShoulder  4.59619 8.01851 33.9422
RightArm  3.69554 -20.1707 37.2139
RightForeArm  0.978903 22.397 4.90256
RightHand  -2.20597 6.90847 -21.0103
LeftUpLeg  6.83828 6.92875 -7.34472
LeftLeg  15.4001 15.2066 -0.309188
LeftFoot  -11.7992 0.0935139 5.77417
LeftToes  1.06245e-005 4.65855e-005 -8.18503e-006
361
root  -36.8766 39.9121 11.4643 -173.23 -70.3818 161.493
RightUpLeg  -18.2249 -11.9084 -9.44437
RightLeg  27.741 -5.47284 -3.54545
RightFoot  3.05295 -0.574627 4.71201
RightToes  0.000482159 0.542163 -0.142577
Spine  10.4366 -0.938135 -6.25208
Spine1  7.82721 -1.66 -0.727316
HEad  -4.67632 3.2766 0.445122
LeftShoulder1  7.54909 -11.4599 -43.9079
LeftArm  -14.5919 15.3732 -23.9717
LeftForeArm  43.228 -52.3951 -11.1075
LeftHand  -0.25398 0.0180481 5.50724
RightShoulder  4.59245 8.06266 33.7585
RightArm  2.23507 -21.108 37.0587
RightForeArm  1.30046 21.1841 5.00833
RightHand  -2.1727 6.76693 -20.9332
LeftUpLeg  8.86848 6.06977 -7.30785
LeftLeg  15.4821 14.5159 -0.675937
LeftFoot  -13.816 0.191506 4.96749
LeftToes  1.06245e-005 4.65855e-005 -8.18503e-006
362
root  -38.0943 39.8345 10.8034 -170.512 -71.7152 158.784
RightUpLeg  -16.8178 -15.0089 -9.68203
RightLeg  14.5134 -4.75476 -0.81662
RightFoot  3.11787 -0.567796 4.64193
RightToes  0.000482159 0.542163 -0.142577
Spine  9.81346 -0.966003 -7.31341
Spine1  8.46922 -1.9816 0.384919
HEad  -4.70458 2.07364 0.744242
LeftShoulder1  7.61191 -11.6115 -43.8254
LeftArm  -15.2642 13.7532 -23.6747
LeftForeArm  43.793 -54.8605 -12.2687
LeftHand  -0.25398 0.0180481 5.50724
RightShoulder  4.66739 8.2162 33.8769
RightArm  0.0720099 -21.4472 36.7187
RightForeArm  3.09455 18.6892 5.42412
RightHand  -2.06721 6.40137 -20.5422
LeftUpLeg  11.6833 5.18509 -7.27562
LeftLeg  14.2695 13.8902 -1.23507
LeftFoot  -14.9821 0.230339 4.39667
LeftToes  1.06245e-005 4.65855e-005 -8.18503e-006
363
root  -39.366 39.6792 10.1137 -167.727 -73.1373 155.828
RightUpLeg  -14.1658 -13.3487 -11.9243
RightLeg  2.46429 -10.8084 3.11292
RightFoot  4.16599 -0.682868 5.20701
RightToes  0.000482159 0.542163 -0.142577
Spine  9.38411 -1.01305 -7.9122
Spine1  8.87594 -2.26295 1.24472
HEad  -4.62198 0.624978 0.700033
LeftShoulder1  7.72034 -11.7746 -43.9842
LeftArm  -15.5903 12.1312 -23.3674
LeftForeArm  44.1106 -55.6931 -12.6922
LeftHand  -0.25398 0.0180481 5.50724
RightShoulder  4.70996 8.27343 34.0438
RightArm  -3.56742 -21.7009 36.4497
RightForeArm  7.23658 15.6675 5.89835
RightHand  -1.8948 5.89211 -19.6974
LeftUpLeg  14.757 4.88567 -6.89872
LeftLeg  13.2781 12.5049 -1.64788
LeftFoot  -16.5805 0.253447 3.41551
LeftToes  1.06245e-005 4.65855e-005 -8.18503e-006
364
root  -40.7088 39.404 9.37414 -165.411 -74.1191 153.459
RightUpLeg  -12.3704 -12.9553 -13.0683
RightLeg  -4.27407 -19.712 6.71805
RightFoot  5.15889 -0.850951 6.1076
RightToes  0.000482159 0.542163 -0.142577
Spine  8.93939 -0.981475 -8.01278
Spine1  8.82549 -2.31164 1.63159
HEad  -4.41736 -1.00494 0.585821
LeftShoulder1  7.77022 -11.824 -44.1334
LeftArm  -15.7259 10.8187 -23.4291
LeftForeArm  44.4763 -55.0876 -12.3428
LeftHand  -0.25398 0.0180481 5.50724
RightShoulder  4.6463 8.14534 33.937
RightArm  -7.75797 -22.1117 36.6977
RightForeArm  11.8137 13.072 5.88594
RightHand  -1.68039 5.26071 -18.5354
LeftUpLeg  17.1931 5.48899 -6.0079
LeftLeg  13.7318 10.4048 -1.67889
LeftFoot  -18.9105 0.233539 1.81422
LeftToes  1.06245e-005 4.65855e-005 -8.18503e-006
365
root  -42.0552 39.1571 8.61275 -163.498 -74.6616 152.003
RightUpLeg  -12.3168 -14.1258 -12.7846
RightLeg  -4.12709 -30.1965 9.00534
RightFoot  5.20315 -0.53662 3.94927
RightToes  0.000482159 0.542163 -0.142577
Spine  8.10307 -1.01969 -7.91127
Spine1  8.91817 -2.44403 2.25777
HEad  -4.46213 -2.54714 0.585621
LeftShoulder1  7.76924 -11.7861 -44.242
LeftArm  -15.961 10.4268 -23.7487
LeftForeArm  45.1757 -53.9726 -11.7147
LeftHand  -0.25398 0.0180481 5.50724
RightShoulder  4.51699 7.93263 33.5513
RightArm  -10.7807 -22.7169 37.4343
RightForeArm  13.7098 12.0377 5.49544
RightHand  -1.52857 4.73066 -17.7631
LeftUpLeg  18.7195 6.99611 -4.73025
LeftLeg  14.8686 8.177 -1.20891
LeftFoot  -20.3517 0.161033 0.476848
LeftToes  1.06245e-005 4.65855e-005 -8.18503e-006
366
root  -43.4302 39.0101 7.84117 -163.071 -75.0948 152.332
RightUpLeg  -13.0718 -16.2604 -11.4633
RightLeg  -0.048634 -37.1581 8.77273
RightFoot  5.80899 0.581746 -3.54818
RightToes  0.000482159 0.542163 -0.142577
Spine  6.81031 -1.33305 -7.05989
Spine1  9.51506 -2.7747 2.83563
HEad  -5.00782 -4.08797 0.655633
LeftShoulder1  7.85559 -11.8493 -44.5638
LeftArm  -16.0161 11.2293 -23.6599
LeftForeArm  45.9135 -53.0871 -11.2301
LeftHand  -0.25398 0.0180481 5.50724
RightShoulder  4.40864 7.74605 33.2453
RightArm  -11.7239 -23.6273 38.1166
RightForeArm  12.0093 13.0572 5.26408
RightHand  -1.52471 4.66868 -17.8162
LeftUpLeg  19.9069 9.41646 -2.74637
LeftLeg  16.1596 5.48273 -0.190039
LeftFoot  -20.4175 0.03665 -1.06854
LeftToes  1.06245e-005 4.65855e-005 -8.18503e-006
367
root  -44.9175 38.9058 7.0607 -167.887 -74.696 157.686
RightUpLeg  -15.7367 -23.2512 -7.13986
RightLeg  8.49718 -31.8066 4.0071
RightFoot  6.04196 2.02579 -12.964
RightToes  0.000482159 0.542163 -0.142577
Spine  5.47552 -1.64536 -3.82378
Spine1  10.1418 -2.57609 1.84652
HEad  -5.70383 -5.79309 0.745068
LeftShoulder1  7.98101 -11.925 -45.0764
LeftArm  -15.3853 12.9576 -23.1089
LeftForeArm  46.1039 -52.2127 -10.8151
LeftHand  -0.25398 0.0180481 5.50724
RightShoulder  4.35093 7.59956 33.242
RightArm  -10.6407 -24.5601 38.3673
RightForeArm  8.92597 15.1319 5.22897
RightHand  -1.61328 5.05697 -18.1533
LeftUpLeg  21.3583 11.8822 0.430081
LeftLeg  18.158 2.77334 0.775013
LeftFoot  -19.961 -0.274194 -5.18907
LeftToes  1.06245e-005 4.65855e-005 -8.18503e-006
368
root  -46.4625 38.8297 6.28318 -177.791 -72.0682 168.047
RightUpLeg  -19.9265 -32.8473 0.927998
RightLeg  16.3528 -17.3032 -1.34972
RightFoot  4.76053 2.66577 -18.4249
RightToes  0.000482159 0.542163 -0.142577
Spine  4.6006 -1.55739 1.88864
Spine1  10.2355 -1.50266 -0.662474
HEad  -5.97234 -7.26454 0.941561
LeftShoulder1  7.85982 -11.6165 -45.3024
LeftArm  -14.5108 15.4134 -23.0148
LeftForeArm  45.5272 -50.8284 -10.2549
LeftHand  -0.25398 0.0180481 5.50724
RightShoulder  4.3205 7.50265 33.3097
RightArm  -8.62505 -24.5266 38.2904
RightForeArm  7.69403 16.3795 5.25242
RightHand  -1.64162 5.30177 -18.0577
LeftUpLeg  22.1711 13.5606 4.41867
LeftLeg  22.2864 2.03812 1.32522
LeftFoot  -17.9954 -0.566006 -11.9612
LeftToes  1.06245e-005 4.65855e-005 -8.18503e-006
369
root  -47.9026 38.7912 5.48632 174.729 -67.8455 176.398
RightUpLeg  -22.2683 -34.1064 7.06578
RightLeg  21.1963 -10.2368 -4.62978
RightFoot  2.11686 2.13226 -17.699
RightToes  0.000482159 0.542163 -0.142577
Spine  4.15889 -1.45261 6.67838
Spine1  9.64072 -0.703598 -2.22784
HEad  -5.65384 -8.19318 1.3137
LeftShoulder1  7.46818 -10.9351 -45.0636
LeftArm  -14.4257 18.6047 -24.007
LeftForeArm  44.3173 -48.9062 -9.55919
LeftHand  -0.25398 0.0180481 5.50724
RightShoulder  4.29837 7.50088 33.1161
RightArm  -6.78411 -22.9391 38.1984
RightForeArm  8.65247 16.1795 5.4149
RightHand  -1.5954 5.18142 -17.7593
LeftUpLeg  19.972 14.6479 7.7558
LeftLeg  30.4445 3.73491 2.78749
LeftFoot  -11.4202 0.047813 -16.6593
LeftToes  1.06245e-005 4.65855e-005 -8.18503e-006
370
root  -49.1106 38.7741 4.70225 171.425 -64.6304 -179.031
RightUpLeg  -21.5696 -29.7924 8.75392
RightLeg  24.1708 -11.6167 -5.89815
RightFoot  -0.800961 1.38859 -15.0393
RightToes  0.000482159 0.542163 -0.142577
Spine  4.08552 -1.92117 8.11777
Spine1  8.59302 -1.33149 -0.764123
HEad  -5.03315 -9.50453 1.8608
LeftShoulder1  7.28134 -10.5998 -44.9751
LeftArm  -15.0083 21.9471 -25.4789
LeftForeArm  42.7873 -46.6105 -8.80592
LeftHand  -0.25398 0.0180481 5.50724
RightShoulder  4.26832 7.56364 32.6241
RightArm  -5.3763 -20.8226 38.3375
RightForeArm  8.67425 16.0745 5.56093
RightHand  -1.61796 5.20871 -17.9571
LeftUpLeg  13.7426 13.8976 9.01114
LeftLeg  41.796 5.81787 5.93177
LeftFoot  0.213501 1.44195 -14.8178
LeftToes  1.06245e-005 4.65855e-005 -8.18503e-006
